<mxfile host="app.diagrams.net" agent="Mozilla/5.0 (Windows NT 10.0; Win64; x64) AppleWebKit/537.36 (KHTML, like Gecko) Chrome/140.0.0.0 Safari/537.36" version="28.2.3" pages="2">
  <diagram name="Página-1" id="2Qjh2bIjdzzdzZphyHdI">
    <mxGraphModel dx="983" dy="536" grid="1" gridSize="10" guides="1" tooltips="1" connect="1" arrows="1" fold="1" page="1" pageScale="1" pageWidth="827" pageHeight="1169" math="0" shadow="0">
      <root>
        <mxCell id="0" />
        <mxCell id="1" parent="0" />
        <mxCell id="qyIE-Ye_dzb5EfiKV6FK-89" value="" style="rounded=0;whiteSpace=wrap;html=1;movable=1;resizable=1;rotatable=1;deletable=1;editable=1;locked=0;connectable=1;" vertex="1" parent="1">
          <mxGeometry x="20" y="380" width="770" height="80" as="geometry" />
        </mxCell>
        <mxCell id="qyIE-Ye_dzb5EfiKV6FK-102" value="" style="endArrow=none;dashed=1;html=1;dashPattern=1 3;strokeWidth=2;rounded=0;" edge="1" parent="1" source="qyIE-Ye_dzb5EfiKV6FK-76" target="6N-mZS2Z_zRasj6rwr39-90">
          <mxGeometry width="50" height="50" relative="1" as="geometry">
            <mxPoint x="40" y="920" as="sourcePoint" />
            <mxPoint x="40" y="230" as="targetPoint" />
            <Array as="points" />
          </mxGeometry>
        </mxCell>
        <mxCell id="qyIE-Ye_dzb5EfiKV6FK-98" value="" style="endArrow=none;dashed=1;html=1;dashPattern=1 3;strokeWidth=2;rounded=0;entryX=0.5;entryY=1;entryDx=0;entryDy=0;" edge="1" parent="1" target="6N-mZS2Z_zRasj6rwr39-86">
          <mxGeometry width="50" height="50" relative="1" as="geometry">
            <mxPoint x="245" y="940" as="sourcePoint" />
            <mxPoint x="300" y="330" as="targetPoint" />
            <Array as="points" />
          </mxGeometry>
        </mxCell>
        <mxCell id="qyIE-Ye_dzb5EfiKV6FK-97" value="" style="endArrow=none;dashed=1;html=1;dashPattern=1 3;strokeWidth=2;rounded=0;entryX=0.5;entryY=1;entryDx=0;entryDy=0;" edge="1" parent="1" target="6N-mZS2Z_zRasj6rwr39-87">
          <mxGeometry width="50" height="50" relative="1" as="geometry">
            <mxPoint x="459" y="900" as="sourcePoint" />
            <mxPoint x="540" y="240" as="targetPoint" />
            <Array as="points" />
          </mxGeometry>
        </mxCell>
        <mxCell id="qyIE-Ye_dzb5EfiKV6FK-86" value="" style="endArrow=none;dashed=1;html=1;dashPattern=1 3;strokeWidth=2;rounded=0;entryX=0.5;entryY=1;entryDx=0;entryDy=0;" edge="1" parent="1" target="6N-mZS2Z_zRasj6rwr39-88">
          <mxGeometry width="50" height="50" relative="1" as="geometry">
            <mxPoint x="655" y="940" as="sourcePoint" />
            <mxPoint x="760" y="435" as="targetPoint" />
            <Array as="points" />
          </mxGeometry>
        </mxCell>
        <mxCell id="6N-mZS2Z_zRasj6rwr39-86" value="UEg" style="rounded=0;whiteSpace=wrap;html=1;" vertex="1" parent="1">
          <mxGeometry x="200" y="70" width="90" height="40" as="geometry" />
        </mxCell>
        <mxCell id="6N-mZS2Z_zRasj6rwr39-87" value="Eleição" style="rounded=0;whiteSpace=wrap;html=1;" vertex="1" parent="1">
          <mxGeometry x="414" y="70" width="90" height="40" as="geometry" />
        </mxCell>
        <mxCell id="6N-mZS2Z_zRasj6rwr39-88" value="UEv" style="rounded=0;whiteSpace=wrap;html=1;" vertex="1" parent="1">
          <mxGeometry x="610" y="70" width="90" height="40" as="geometry" />
        </mxCell>
        <mxCell id="6N-mZS2Z_zRasj6rwr39-90" value="Administrador" style="shape=umlActor;verticalLabelPosition=bottom;verticalAlign=top;html=1;outlineConnect=0;" vertex="1" parent="1">
          <mxGeometry x="22.5" y="40" width="50" height="80" as="geometry" />
        </mxCell>
        <mxCell id="6N-mZS2Z_zRasj6rwr39-94" value="" style="endArrow=classic;html=1;rounded=0;exitX=1;exitY=0.5;exitDx=0;exitDy=0;" edge="1" parent="1" source="6N-mZS2Z_zRasj6rwr39-93">
          <mxGeometry width="50" height="50" relative="1" as="geometry">
            <mxPoint x="64" y="190" as="sourcePoint" />
            <mxPoint x="234" y="190" as="targetPoint" />
            <Array as="points" />
          </mxGeometry>
        </mxCell>
        <mxCell id="6N-mZS2Z_zRasj6rwr39-95" value="&#xa;solicitarTotalizacao()&#xa;&#xa;" style="text;html=1;align=center;verticalAlign=middle;whiteSpace=wrap;rounded=0;" vertex="1" parent="1">
          <mxGeometry x="120" y="160" width="60" height="30" as="geometry" />
        </mxCell>
        <mxCell id="6N-mZS2Z_zRasj6rwr39-96" value="" style="rounded=0;whiteSpace=wrap;html=1;" vertex="1" parent="1">
          <mxGeometry x="449" y="160" width="20" height="90" as="geometry" />
        </mxCell>
        <mxCell id="6N-mZS2Z_zRasj6rwr39-98" value="" style="endArrow=classic;html=1;rounded=0;exitX=1;exitY=0.375;exitDx=0;exitDy=0;exitPerimeter=0;entryX=-0.05;entryY=0.344;entryDx=0;entryDy=0;entryPerimeter=0;" edge="1" parent="1" source="6N-mZS2Z_zRasj6rwr39-89" target="6N-mZS2Z_zRasj6rwr39-96">
          <mxGeometry width="50" height="50" relative="1" as="geometry">
            <mxPoint x="270" y="190" as="sourcePoint" />
            <mxPoint x="440" y="190" as="targetPoint" />
            <Array as="points" />
          </mxGeometry>
        </mxCell>
        <mxCell id="6N-mZS2Z_zRasj6rwr39-99" value="&#xa;verificarStatusEleicao()&#xa;&#xa;" style="text;html=1;align=center;verticalAlign=middle;whiteSpace=wrap;rounded=0;" vertex="1" parent="1">
          <mxGeometry x="330" y="170" width="60" height="30" as="geometry" />
        </mxCell>
        <mxCell id="6N-mZS2Z_zRasj6rwr39-89" value="" style="rounded=0;whiteSpace=wrap;html=1;" vertex="1" parent="1">
          <mxGeometry x="235" y="160" width="20" height="80" as="geometry" />
        </mxCell>
        <mxCell id="qyIE-Ye_dzb5EfiKV6FK-2" value="alt" style="shape=umlFrame;whiteSpace=wrap;html=1;pointerEvents=0;width=38;height=15;" vertex="1" parent="1">
          <mxGeometry x="20" y="260" width="770" height="120" as="geometry" />
        </mxCell>
        <mxCell id="qyIE-Ye_dzb5EfiKV6FK-3" style="edgeStyle=orthogonalEdgeStyle;rounded=0;orthogonalLoop=1;jettySize=auto;html=1;exitX=0.5;exitY=1;exitDx=0;exitDy=0;" edge="1" parent="1" source="6N-mZS2Z_zRasj6rwr39-93" target="6N-mZS2Z_zRasj6rwr39-93">
          <mxGeometry relative="1" as="geometry" />
        </mxCell>
        <mxCell id="qyIE-Ye_dzb5EfiKV6FK-7" value="" style="rounded=0;whiteSpace=wrap;html=1;" vertex="1" parent="1">
          <mxGeometry x="235" y="295" width="20" height="45" as="geometry" />
        </mxCell>
        <mxCell id="qyIE-Ye_dzb5EfiKV6FK-11" value="" style="endArrow=none;html=1;strokeWidth=2;rounded=0;dashed=1;dashPattern=1 1;verticalAlign=top;entryX=0;entryY=0.5;entryDx=0;entryDy=0;startArrow=classic;startFill=1;exitX=1;exitY=0.444;exitDx=0;exitDy=0;exitPerimeter=0;" edge="1" parent="1" source="qyIE-Ye_dzb5EfiKV6FK-7" target="qyIE-Ye_dzb5EfiKV6FK-30">
          <mxGeometry width="50" height="50" relative="1" as="geometry">
            <mxPoint x="255" y="318" as="sourcePoint" />
            <mxPoint x="450" y="390" as="targetPoint" />
          </mxGeometry>
        </mxCell>
        <mxCell id="qyIE-Ye_dzb5EfiKV6FK-22" value="loop" style="shape=umlFrame;whiteSpace=wrap;html=1;pointerEvents=0;width=38;height=20;" vertex="1" parent="1">
          <mxGeometry x="22.5" y="490" width="767.5" height="250" as="geometry" />
        </mxCell>
        <mxCell id="qyIE-Ye_dzb5EfiKV6FK-30" value="" style="rounded=0;whiteSpace=wrap;html=1;" vertex="1" parent="1">
          <mxGeometry x="449" y="295" width="19" height="40" as="geometry" />
        </mxCell>
        <mxCell id="qyIE-Ye_dzb5EfiKV6FK-32" value="status=&quot;encerrada&quot;" style="text;html=1;align=center;verticalAlign=middle;resizable=0;points=[];autosize=1;strokeColor=none;fillColor=none;" vertex="1" parent="1">
          <mxGeometry x="290" y="290" width="130" height="30" as="geometry" />
        </mxCell>
        <mxCell id="qyIE-Ye_dzb5EfiKV6FK-33" value="" style="endArrow=none;html=1;strokeWidth=2;rounded=0;dashed=1;dashPattern=1 1;verticalAlign=top;entryX=0;entryY=0.5;entryDx=0;entryDy=0;startArrow=classic;startFill=1;exitX=1;exitY=0.5;exitDx=0;exitDy=0;" edge="1" parent="1" source="qyIE-Ye_dzb5EfiKV6FK-82" target="qyIE-Ye_dzb5EfiKV6FK-84">
          <mxGeometry width="50" height="50" relative="1" as="geometry">
            <mxPoint x="273" y="319.58" as="sourcePoint" />
            <mxPoint x="467" y="319.58" as="targetPoint" />
          </mxGeometry>
        </mxCell>
        <mxCell id="qyIE-Ye_dzb5EfiKV6FK-34" value="status=&quot;em_andamento&quot;" style="text;html=1;align=center;verticalAlign=middle;resizable=0;points=[];autosize=1;strokeColor=none;fillColor=none;" vertex="1" parent="1">
          <mxGeometry x="290" y="390" width="150" height="30" as="geometry" />
        </mxCell>
        <mxCell id="qyIE-Ye_dzb5EfiKV6FK-35" value="" style="endArrow=classic;html=1;rounded=0;entryX=1;entryY=0.5;entryDx=0;entryDy=0;exitX=0;exitY=0.5;exitDx=0;exitDy=0;entryPerimeter=0;" edge="1" parent="1" source="qyIE-Ye_dzb5EfiKV6FK-82" target="qyIE-Ye_dzb5EfiKV6FK-36">
          <mxGeometry width="50" height="50" relative="1" as="geometry">
            <mxPoint x="230" y="330" as="sourcePoint" />
            <mxPoint x="50" y="310" as="targetPoint" />
            <Array as="points" />
          </mxGeometry>
        </mxCell>
        <mxCell id="qyIE-Ye_dzb5EfiKV6FK-36" value="" style="rounded=0;whiteSpace=wrap;html=1;" vertex="1" parent="1">
          <mxGeometry x="37.5" y="400" width="20" height="35" as="geometry" />
        </mxCell>
        <mxCell id="6N-mZS2Z_zRasj6rwr39-93" value="" style="rounded=0;whiteSpace=wrap;html=1;" vertex="1" parent="1">
          <mxGeometry x="35" y="150" width="20" height="80" as="geometry" />
        </mxCell>
        <mxCell id="qyIE-Ye_dzb5EfiKV6FK-47" value="" style="endArrow=classic;html=1;rounded=0;exitX=1;exitY=0.5;exitDx=0;exitDy=0;entryX=0.058;entryY=0.39;entryDx=0;entryDy=0;entryPerimeter=0;" edge="1" parent="1" target="qyIE-Ye_dzb5EfiKV6FK-52">
          <mxGeometry width="50" height="50" relative="1" as="geometry">
            <mxPoint x="255" y="550" as="sourcePoint" />
            <mxPoint x="435" y="550" as="targetPoint" />
            <Array as="points" />
          </mxGeometry>
        </mxCell>
        <mxCell id="qyIE-Ye_dzb5EfiKV6FK-17" value="" style="rounded=0;whiteSpace=wrap;html=1;" vertex="1" parent="1">
          <mxGeometry x="235" y="530" width="20" height="80" as="geometry" />
        </mxCell>
        <mxCell id="qyIE-Ye_dzb5EfiKV6FK-52" value="" style="rounded=0;whiteSpace=wrap;html=1;" vertex="1" parent="1">
          <mxGeometry x="645" y="518" width="20" height="80" as="geometry" />
        </mxCell>
        <mxCell id="qyIE-Ye_dzb5EfiKV6FK-54" value="solicitarVotos(uevId)" style="text;html=1;align=center;verticalAlign=middle;resizable=0;points=[];autosize=1;strokeColor=none;fillColor=none;" vertex="1" parent="1">
          <mxGeometry x="330" y="518" width="130" height="30" as="geometry" />
        </mxCell>
        <mxCell id="qyIE-Ye_dzb5EfiKV6FK-55" value="" style="endArrow=none;html=1;strokeWidth=2;rounded=0;dashed=1;dashPattern=1 1;verticalAlign=top;startArrow=classic;startFill=1;entryX=0.1;entryY=0.869;entryDx=0;entryDy=0;entryPerimeter=0;exitX=1;exitY=0.75;exitDx=0;exitDy=0;" edge="1" parent="1" source="qyIE-Ye_dzb5EfiKV6FK-17" target="qyIE-Ye_dzb5EfiKV6FK-52">
          <mxGeometry width="50" height="50" relative="1" as="geometry">
            <mxPoint x="255" y="599" as="sourcePoint" />
            <mxPoint x="630" y="590" as="targetPoint" />
          </mxGeometry>
        </mxCell>
        <mxCell id="qyIE-Ye_dzb5EfiKV6FK-56" value="votosPorUEv" style="text;html=1;align=center;verticalAlign=middle;resizable=0;points=[];autosize=1;strokeColor=none;fillColor=none;" vertex="1" parent="1">
          <mxGeometry x="350" y="560" width="90" height="30" as="geometry" />
        </mxCell>
        <mxCell id="qyIE-Ye_dzb5EfiKV6FK-58" value="UC-06 — Totalizar votos" style="rounded=0;whiteSpace=wrap;html=1;" vertex="1" parent="1">
          <mxGeometry x="240" y="10" width="250" height="30" as="geometry" />
        </mxCell>
        <mxCell id="qyIE-Ye_dzb5EfiKV6FK-59" value="alt" style="shape=umlFrame;whiteSpace=wrap;html=1;pointerEvents=0;width=38;height=20;" vertex="1" parent="1">
          <mxGeometry x="22.5" y="615" width="767.5" height="120" as="geometry" />
        </mxCell>
        <mxCell id="qyIE-Ye_dzb5EfiKV6FK-60" value="" style="rounded=0;whiteSpace=wrap;html=1;" vertex="1" parent="1">
          <mxGeometry x="235" y="650" width="20" height="80" as="geometry" />
        </mxCell>
        <mxCell id="qyIE-Ye_dzb5EfiKV6FK-62" value="" style="rounded=0;whiteSpace=wrap;html=1;" vertex="1" parent="1">
          <mxGeometry x="645" y="650" width="20" height="80" as="geometry" />
        </mxCell>
        <mxCell id="qyIE-Ye_dzb5EfiKV6FK-65" value="" style="endArrow=classic;html=1;rounded=0;exitX=1;exitY=0.25;exitDx=0;exitDy=0;entryX=0.058;entryY=0.39;entryDx=0;entryDy=0;entryPerimeter=0;" edge="1" parent="1" source="qyIE-Ye_dzb5EfiKV6FK-60">
          <mxGeometry width="50" height="50" relative="1" as="geometry">
            <mxPoint x="255" y="670" as="sourcePoint" />
            <mxPoint x="646" y="671" as="targetPoint" />
            <Array as="points" />
          </mxGeometry>
        </mxCell>
        <mxCell id="qyIE-Ye_dzb5EfiKV6FK-66" value="solicitarVotos(uevId)" style="text;html=1;align=center;verticalAlign=middle;resizable=0;points=[];autosize=1;strokeColor=none;fillColor=none;" vertex="1" parent="1">
          <mxGeometry x="310" y="640" width="130" height="30" as="geometry" />
        </mxCell>
        <mxCell id="qyIE-Ye_dzb5EfiKV6FK-67" value="" style="endArrow=none;html=1;strokeWidth=2;rounded=0;dashed=1;dashPattern=1 1;verticalAlign=top;startArrow=classic;startFill=1;entryX=0;entryY=0.75;entryDx=0;entryDy=0;exitX=1;exitY=0.75;exitDx=0;exitDy=0;" edge="1" parent="1" source="qyIE-Ye_dzb5EfiKV6FK-60" target="qyIE-Ye_dzb5EfiKV6FK-62">
          <mxGeometry width="50" height="50" relative="1" as="geometry">
            <mxPoint x="330" y="710" as="sourcePoint" />
            <mxPoint x="722" y="710" as="targetPoint" />
          </mxGeometry>
        </mxCell>
        <mxCell id="qyIE-Ye_dzb5EfiKV6FK-68" value="erro(&quot;Falha no envio&quot;)" style="text;html=1;align=center;verticalAlign=middle;resizable=0;points=[];autosize=1;strokeColor=none;fillColor=none;" vertex="1" parent="1">
          <mxGeometry x="300" y="678" width="140" height="30" as="geometry" />
        </mxCell>
        <mxCell id="qyIE-Ye_dzb5EfiKV6FK-75" value="" style="endArrow=classic;html=1;rounded=0;entryX=1;entryY=0.75;entryDx=0;entryDy=0;exitX=0;exitY=0.75;exitDx=0;exitDy=0;" edge="1" parent="1">
          <mxGeometry width="50" height="50" relative="1" as="geometry">
            <mxPoint x="235" y="708" as="sourcePoint" />
            <mxPoint x="55" y="709" as="targetPoint" />
          </mxGeometry>
        </mxCell>
        <mxCell id="qyIE-Ye_dzb5EfiKV6FK-80" value="notificarErro(uevId)" style="text;html=1;align=center;verticalAlign=middle;resizable=0;points=[];autosize=1;strokeColor=none;fillColor=none;" vertex="1" parent="1">
          <mxGeometry x="80" y="670" width="130" height="30" as="geometry" />
        </mxCell>
        <mxCell id="qyIE-Ye_dzb5EfiKV6FK-82" value="" style="rounded=0;whiteSpace=wrap;html=1;" vertex="1" parent="1">
          <mxGeometry x="235" y="400" width="20" height="35" as="geometry" />
        </mxCell>
        <mxCell id="qyIE-Ye_dzb5EfiKV6FK-84" value="" style="rounded=0;whiteSpace=wrap;html=1;movable=0;resizable=0;rotatable=0;deletable=0;editable=0;locked=1;connectable=0;" vertex="1" parent="1">
          <mxGeometry x="450" y="400" width="20" height="35" as="geometry" />
        </mxCell>
        <mxCell id="qyIE-Ye_dzb5EfiKV6FK-94" value="erro(&quot;Eleição não encerrada. " style="text;html=1;align=center;verticalAlign=middle;resizable=0;points=[];autosize=1;strokeColor=none;fillColor=none;" vertex="1" parent="1">
          <mxGeometry x="60" y="390" width="180" height="30" as="geometry" />
        </mxCell>
        <mxCell id="qyIE-Ye_dzb5EfiKV6FK-103" value="" style="endArrow=none;dashed=1;html=1;dashPattern=1 3;strokeWidth=2;rounded=0;" edge="1" parent="1" target="qyIE-Ye_dzb5EfiKV6FK-76">
          <mxGeometry width="50" height="50" relative="1" as="geometry">
            <mxPoint x="40" y="920" as="sourcePoint" />
            <mxPoint x="47" y="120" as="targetPoint" />
            <Array as="points" />
          </mxGeometry>
        </mxCell>
        <mxCell id="qyIE-Ye_dzb5EfiKV6FK-76" value="" style="rounded=0;whiteSpace=wrap;html=1;" vertex="1" parent="1">
          <mxGeometry x="35" y="656.5" width="20" height="67" as="geometry" />
        </mxCell>
      </root>
    </mxGraphModel>
  </diagram>
  <diagram id="OyGuaNL4E3a_sav7KoFN" name="Página-2">
    <mxGraphModel dx="1426" dy="777" grid="1" gridSize="10" guides="1" tooltips="1" connect="1" arrows="1" fold="1" page="1" pageScale="1" pageWidth="827" pageHeight="1169" math="0" shadow="0">
      <root>
        <mxCell id="0" />
        <mxCell id="1" parent="0" />
      </root>
    </mxGraphModel>
  </diagram>
</mxfile>
